<?xml version="1.0" standalone="no"?>
<!DOCTYPE svg PUBLIC "-//W3C//DTD SVG 20010904//EN"
 "http://www.w3.org/TR/2001/REC-SVG-20010904/DTD/svg10.dtd">
<svg version="1.0" xmlns="http://www.w3.org/2000/svg"
 width="512.000000pt" height="512.000000pt" viewBox="0 0 512.000000 512.000000"
 preserveAspectRatio="xMidYMid meet">

<g transform="translate(0.000000,512.000000) scale(0.100000,-0.100000)"
fill="#000000" stroke="none">
<path d="M1960 4060 l0 -100 -100 0 -100 0 0 -200 0 -200 -100 0 -100 0 0
-300 0 -300 200 0 200 0 0 100 0 100 200 0 200 0 0 100 0 100 -100 0 -100 0 0
100 0 100 100 0 100 0 0 100 0 100 200 0 200 0 0 -200 0 -200 100 0 100 0 0
-100 0 -100 -100 0 -100 0 0 -100 0 -100 400 0 400 0 0 100 0 100 -200 0 -200
0 0 100 0 100 -100 0 -100 0 0 200 0 200 300 0 300 0 0 100 0 100 -300 0 -300
0 0 100 0 100 -500 0 -500 0 0 -100z m0 -700 l0 -200 -100 0 -100 0 0 200 0
200 100 0 100 0 0 -200z"/>
<path d="M1760 2660 l0 -100 -100 0 -100 0 0 -100 0 -100 -100 0 -100 0 0
-100 0 -100 200 0 200 0 0 -100 0 -100 100 0 100 0 0 -100 0 -100 -100 0 -100
0 0 -200 0 -200 -100 0 -100 0 0 -100 0 -100 -100 0 -100 0 0 -100 0 -100 400
0 400 0 0 200 0 200 100 0 100 0 0 100 0 100 200 0 200 0 0 -100 0 -100 100 0
100 0 0 -200 0 -200 400 0 400 0 0 100 0 100 -100 0 -100 0 0 100 0 100 -100
0 -100 0 0 200 0 200 -100 0 -100 0 0 100 0 100 100 0 100 0 0 100 0 100 200
0 200 0 0 100 0 100 -100 0 -100 0 0 100 0 100 -300 0 -300 0 0 100 0 100
-600 0 -600 0 0 -100z m600 -600 l0 -100 -100 0 -100 0 0 100 0 100 100 0 100
0 0 -100z m600 0 l0 -100 -100 0 -100 0 0 100 0 100 100 0 100 0 0 -100z"/>
</g>
</svg>
